<mxfile host="app.diagrams.net" agent="Mozilla/5.0 (Windows NT 10.0; Win64; x64) AppleWebKit/537.36 (KHTML, like Gecko) Chrome/127.0.0.0 Safari/537.36 Edg/127.0.0.0" version="24.7.6">
  <diagram name="Page-1" id="ZI7pFykF1k9MbJkaQqWg">
    <mxGraphModel dx="2352" dy="1078" grid="0" gridSize="10" guides="1" tooltips="1" connect="1" arrows="1" fold="1" page="0" pageScale="1" pageWidth="850" pageHeight="1100" math="0" shadow="0">
      <root>
        <mxCell id="0" />
        <mxCell id="1" parent="0" />
        <mxCell id="4hvoMcBqBPqvVNo2y5Dt-1" value="&lt;b&gt;WARD&lt;/b&gt;" style="rounded=0;whiteSpace=wrap;html=1;fillColor=#FFCC99;" parent="1" vertex="1">
          <mxGeometry x="-285" y="260" width="120" height="60" as="geometry" />
        </mxCell>
        <mxCell id="4hvoMcBqBPqvVNo2y5Dt-2" value="NumberOfBeds" style="ellipse;whiteSpace=wrap;html=1;fillColor=#FFF2CC;" parent="1" vertex="1">
          <mxGeometry x="-248" y="5" width="120" height="80" as="geometry" />
        </mxCell>
        <mxCell id="4hvoMcBqBPqvVNo2y5Dt-3" value="Location" style="ellipse;whiteSpace=wrap;html=1;fillColor=#FFF2CC;" parent="1" vertex="1">
          <mxGeometry x="-379" y="38" width="120" height="80" as="geometry" />
        </mxCell>
        <mxCell id="4hvoMcBqBPqvVNo2y5Dt-4" value="WardName" style="ellipse;whiteSpace=wrap;html=1;fillColor=#FFF2CC;" parent="1" vertex="1">
          <mxGeometry x="-469" y="105" width="120" height="80" as="geometry" />
        </mxCell>
        <mxCell id="4hvoMcBqBPqvVNo2y5Dt-5" value="&lt;span style=&quot;font-family: &amp;quot;Times New Roman&amp;quot;, serif; font-size: 14.6667px; white-space-collapse: preserve;&quot;&gt;&lt;u&gt;WardNumber&lt;/u&gt;&lt;/span&gt;" style="ellipse;whiteSpace=wrap;html=1;fillColor=#FFF2CC;" parent="1" vertex="1">
          <mxGeometry x="-495" y="204" width="120" height="80" as="geometry" />
        </mxCell>
        <mxCell id="4hvoMcBqBPqvVNo2y5Dt-6" value="TelephoneExtension" style="ellipse;whiteSpace=wrap;html=1;fillColor=#FFF2CC;" parent="1" vertex="1">
          <mxGeometry x="-172" y="85" width="120" height="80" as="geometry" />
        </mxCell>
        <mxCell id="4hvoMcBqBPqvVNo2y5Dt-8" value="ChargeNurse" style="ellipse;whiteSpace=wrap;html=1;fillColor=#FFF2CC;" parent="1" vertex="1">
          <mxGeometry x="-125" y="170" width="120" height="80" as="geometry" />
        </mxCell>
        <mxCell id="4hvoMcBqBPqvVNo2y5Dt-9" value="" style="endArrow=none;html=1;rounded=0;entryX=0.95;entryY=0.717;entryDx=0;entryDy=0;entryPerimeter=0;exitX=0;exitY=0.25;exitDx=0;exitDy=0;" parent="1" source="4hvoMcBqBPqvVNo2y5Dt-1" target="4hvoMcBqBPqvVNo2y5Dt-5" edge="1">
          <mxGeometry width="50" height="50" relative="1" as="geometry">
            <mxPoint x="-455" y="532" as="sourcePoint" />
            <mxPoint x="-405" y="482" as="targetPoint" />
          </mxGeometry>
        </mxCell>
        <mxCell id="4hvoMcBqBPqvVNo2y5Dt-10" value="" style="endArrow=none;html=1;rounded=0;entryX=0.804;entryY=0.956;entryDx=0;entryDy=0;entryPerimeter=0;exitX=0.093;exitY=0.009;exitDx=0;exitDy=0;exitPerimeter=0;" parent="1" source="4hvoMcBqBPqvVNo2y5Dt-1" target="4hvoMcBqBPqvVNo2y5Dt-4" edge="1">
          <mxGeometry width="50" height="50" relative="1" as="geometry">
            <mxPoint x="-256" y="280" as="sourcePoint" />
            <mxPoint x="-386" y="288" as="targetPoint" />
          </mxGeometry>
        </mxCell>
        <mxCell id="4hvoMcBqBPqvVNo2y5Dt-11" value="" style="endArrow=none;html=1;rounded=0;entryX=0.408;entryY=0.983;entryDx=0;entryDy=0;entryPerimeter=0;exitX=0.347;exitY=-0.006;exitDx=0;exitDy=0;exitPerimeter=0;" parent="1" source="4hvoMcBqBPqvVNo2y5Dt-1" target="4hvoMcBqBPqvVNo2y5Dt-3" edge="1">
          <mxGeometry width="50" height="50" relative="1" as="geometry">
            <mxPoint x="-222" y="432" as="sourcePoint" />
            <mxPoint x="-370" y="257" as="targetPoint" />
          </mxGeometry>
        </mxCell>
        <mxCell id="4hvoMcBqBPqvVNo2y5Dt-12" value="" style="endArrow=none;html=1;rounded=0;entryX=0.336;entryY=0.958;entryDx=0;entryDy=0;entryPerimeter=0;" parent="1" source="4hvoMcBqBPqvVNo2y5Dt-1" target="4hvoMcBqBPqvVNo2y5Dt-2" edge="1">
          <mxGeometry width="50" height="50" relative="1" as="geometry">
            <mxPoint x="-112" y="263" as="sourcePoint" />
            <mxPoint x="-265" y="213" as="targetPoint" />
          </mxGeometry>
        </mxCell>
        <mxCell id="4hvoMcBqBPqvVNo2y5Dt-13" value="" style="endArrow=none;html=1;rounded=0;entryX=0.75;entryY=0;entryDx=0;entryDy=0;exitX=0.189;exitY=0.963;exitDx=0;exitDy=0;exitPerimeter=0;" parent="1" source="4hvoMcBqBPqvVNo2y5Dt-6" target="4hvoMcBqBPqvVNo2y5Dt-1" edge="1">
          <mxGeometry width="50" height="50" relative="1" as="geometry">
            <mxPoint x="47" y="319" as="sourcePoint" />
            <mxPoint x="-106" y="269" as="targetPoint" />
          </mxGeometry>
        </mxCell>
        <mxCell id="4hvoMcBqBPqvVNo2y5Dt-14" value="" style="endArrow=none;html=1;rounded=0;entryX=1;entryY=0;entryDx=0;entryDy=0;exitX=0.011;exitY=0.746;exitDx=0;exitDy=0;exitPerimeter=0;" parent="1" source="4hvoMcBqBPqvVNo2y5Dt-8" target="4hvoMcBqBPqvVNo2y5Dt-1" edge="1">
          <mxGeometry width="50" height="50" relative="1" as="geometry">
            <mxPoint x="-22" y="436" as="sourcePoint" />
            <mxPoint x="-175" y="386" as="targetPoint" />
          </mxGeometry>
        </mxCell>
        <mxCell id="4hvoMcBqBPqvVNo2y5Dt-16" value="&lt;div&gt;&lt;br&gt;&lt;/div&gt;&lt;div&gt;DateAdmitted&lt;/div&gt;" style="ellipse;whiteSpace=wrap;html=1;fillColor=#FFF2CC;" parent="1" vertex="1">
          <mxGeometry x="-431" y="701" width="143" height="75" as="geometry" />
        </mxCell>
        <mxCell id="4hvoMcBqBPqvVNo2y5Dt-18" value="&lt;u&gt;PatientNumber&lt;/u&gt;" style="ellipse;whiteSpace=wrap;html=1;fillColor=#FFF2CC;" parent="1" vertex="1">
          <mxGeometry x="-437" y="566" width="120" height="80" as="geometry" />
        </mxCell>
        <mxCell id="4hvoMcBqBPqvVNo2y5Dt-19" value="PatientName" style="ellipse;whiteSpace=wrap;html=1;fillColor=#FFF2CC;" parent="1" vertex="1">
          <mxGeometry x="-189.5" y="531" width="120" height="80" as="geometry" />
        </mxCell>
        <mxCell id="4hvoMcBqBPqvVNo2y5Dt-21" value="" style="endArrow=none;html=1;rounded=0;entryX=0.742;entryY=0.988;entryDx=0;entryDy=0;entryPerimeter=0;exitX=0;exitY=0.5;exitDx=0;exitDy=0;" parent="1" target="4hvoMcBqBPqvVNo2y5Dt-18" edge="1" source="4hvoMcBqBPqvVNo2y5Dt-15">
          <mxGeometry width="50" height="50" relative="1" as="geometry">
            <mxPoint x="-266" y="970" as="sourcePoint" />
            <mxPoint x="-411" y="822" as="targetPoint" />
          </mxGeometry>
        </mxCell>
        <mxCell id="4hvoMcBqBPqvVNo2y5Dt-23" value="" style="endArrow=none;html=1;rounded=0;" parent="1" source="4hvoMcBqBPqvVNo2y5Dt-15" target="4hvoMcBqBPqvVNo2y5Dt-16" edge="1">
          <mxGeometry width="50" height="50" relative="1" as="geometry">
            <mxPoint x="-137" y="797" as="sourcePoint" />
            <mxPoint x="-290" y="747" as="targetPoint" />
          </mxGeometry>
        </mxCell>
        <mxCell id="4hvoMcBqBPqvVNo2y5Dt-24" value="" style="endArrow=none;html=1;rounded=0;entryX=0.75;entryY=0;entryDx=0;entryDy=0;" parent="1" source="4hvoMcBqBPqvVNo2y5Dt-19" edge="1" target="4hvoMcBqBPqvVNo2y5Dt-15">
          <mxGeometry width="50" height="50" relative="1" as="geometry">
            <mxPoint x="22" y="853" as="sourcePoint" />
            <mxPoint x="-168" y="982" as="targetPoint" />
          </mxGeometry>
        </mxCell>
        <mxCell id="4hvoMcBqBPqvVNo2y5Dt-27" value="&lt;div&gt;DrugNumber&lt;/div&gt;&lt;div&gt;_ _ _ _ _ _ _&lt;br&gt;&lt;/div&gt;" style="ellipse;whiteSpace=wrap;html=1;fillColor=#FFF2CC;" parent="1" vertex="1">
          <mxGeometry x="-397" y="1160" width="120" height="80" as="geometry" />
        </mxCell>
        <mxCell id="4hvoMcBqBPqvVNo2y5Dt-28" value="AdministrationMethod" style="ellipse;whiteSpace=wrap;html=1;fillColor=#FFF2CC;" parent="1" vertex="1">
          <mxGeometry x="-142" y="1134" width="138" height="79" as="geometry" />
        </mxCell>
        <mxCell id="4hvoMcBqBPqvVNo2y5Dt-29" value="DrugName" style="ellipse;whiteSpace=wrap;html=1;fillColor=#FFF2CC;" parent="1" vertex="1">
          <mxGeometry x="-418" y="937" width="120" height="80" as="geometry" />
        </mxCell>
        <mxCell id="4hvoMcBqBPqvVNo2y5Dt-30" value="UnitsPerDay" style="ellipse;whiteSpace=wrap;html=1;fillColor=#FFF2CC;" parent="1" vertex="1">
          <mxGeometry x="-133" y="950" width="120" height="80" as="geometry" />
        </mxCell>
        <mxCell id="4hvoMcBqBPqvVNo2y5Dt-31" value="" style="endArrow=none;html=1;rounded=0;entryX=0.742;entryY=0.988;entryDx=0;entryDy=0;entryPerimeter=0;" parent="1" target="4hvoMcBqBPqvVNo2y5Dt-29" edge="1">
          <mxGeometry width="50" height="50" relative="1" as="geometry">
            <mxPoint x="-279" y="1061" as="sourcePoint" />
            <mxPoint x="-431" y="1300" as="targetPoint" />
          </mxGeometry>
        </mxCell>
        <mxCell id="4hvoMcBqBPqvVNo2y5Dt-32" value="" style="endArrow=none;html=1;rounded=0;" parent="1" target="4hvoMcBqBPqvVNo2y5Dt-28" edge="1">
          <mxGeometry width="50" height="50" relative="1" as="geometry">
            <mxPoint x="-173" y="1096" as="sourcePoint" />
            <mxPoint x="-415" y="1269" as="targetPoint" />
          </mxGeometry>
        </mxCell>
        <mxCell id="4hvoMcBqBPqvVNo2y5Dt-36" value="StartDate&lt;div&gt;_ _ _ _ _&lt;/div&gt;" style="ellipse;whiteSpace=wrap;html=1;fillColor=#FFF2CC;" parent="1" vertex="1">
          <mxGeometry x="-520" y="1104" width="138" height="79" as="geometry" />
        </mxCell>
        <mxCell id="4hvoMcBqBPqvVNo2y5Dt-38" value="FinishDate&lt;div&gt;_ _ _ _ _&amp;nbsp;&lt;/div&gt;" style="ellipse;whiteSpace=wrap;html=1;fillColor=#FFF2CC;" parent="1" vertex="1">
          <mxGeometry x="-510" y="1011" width="138" height="79" as="geometry" />
        </mxCell>
        <mxCell id="4hvoMcBqBPqvVNo2y5Dt-39" value="" style="endArrow=none;html=1;rounded=0;exitX=-0.005;exitY=0.618;exitDx=0;exitDy=0;exitPerimeter=0;" parent="1" edge="1" source="4hvoMcBqBPqvVNo2y5Dt-30">
          <mxGeometry width="50" height="50" relative="1" as="geometry">
            <mxPoint x="145.99538461536793" y="1372.0046153846197" as="sourcePoint" />
            <mxPoint x="-194" y="1061" as="targetPoint" />
          </mxGeometry>
        </mxCell>
        <mxCell id="4hvoMcBqBPqvVNo2y5Dt-40" value="" style="endArrow=none;html=1;rounded=0;entryX=1;entryY=0.5;entryDx=0;entryDy=0;exitX=0;exitY=0.75;exitDx=0;exitDy=0;" parent="1" edge="1" target="4hvoMcBqBPqvVNo2y5Dt-36">
          <mxGeometry width="50" height="50" relative="1" as="geometry">
            <mxPoint x="-285" y="1103" as="sourcePoint" />
            <mxPoint x="-542.52" y="1512" as="targetPoint" />
          </mxGeometry>
        </mxCell>
        <mxCell id="4hvoMcBqBPqvVNo2y5Dt-41" value="" style="endArrow=none;html=1;rounded=0;entryX=1.005;entryY=0.414;entryDx=0;entryDy=0;entryPerimeter=0;" parent="1" edge="1" target="4hvoMcBqBPqvVNo2y5Dt-38">
          <mxGeometry width="50" height="50" relative="1" as="geometry">
            <mxPoint x="-286" y="1090" as="sourcePoint" />
            <mxPoint x="-525" y="1422" as="targetPoint" />
          </mxGeometry>
        </mxCell>
        <mxCell id="4hvoMcBqBPqvVNo2y5Dt-42" value="admitted to" style="rhombus;whiteSpace=wrap;html=1;fillColor=#CCFFFF;" parent="1" vertex="1">
          <mxGeometry x="-262" y="443" width="80" height="80" as="geometry" />
        </mxCell>
        <mxCell id="4hvoMcBqBPqvVNo2y5Dt-45" value="" style="endArrow=none;html=1;rounded=0;entryX=0.5;entryY=1;entryDx=0;entryDy=0;" parent="1" edge="1" target="4hvoMcBqBPqvVNo2y5Dt-42">
          <mxGeometry width="50" height="50" relative="1" as="geometry">
            <mxPoint x="-219" y="628" as="sourcePoint" />
            <mxPoint x="-232" y="552" as="targetPoint" />
          </mxGeometry>
        </mxCell>
        <mxCell id="4hvoMcBqBPqvVNo2y5Dt-46" value="1" style="text;html=1;align=center;verticalAlign=middle;resizable=0;points=[];autosize=1;strokeColor=none;fillColor=none;" parent="1" vertex="1">
          <mxGeometry x="-226.5" y="405" width="25" height="26" as="geometry" />
        </mxCell>
        <mxCell id="4hvoMcBqBPqvVNo2y5Dt-47" value="m" style="text;html=1;align=center;verticalAlign=middle;resizable=0;points=[];autosize=1;strokeColor=none;fillColor=none;" parent="1" vertex="1">
          <mxGeometry x="-229.5" y="526" width="28" height="26" as="geometry" />
        </mxCell>
        <mxCell id="4hvoMcBqBPqvVNo2y5Dt-49" value="" style="endArrow=none;html=1;rounded=0;entryX=0.419;entryY=1.002;entryDx=0;entryDy=0;entryPerimeter=0;" parent="1" edge="1" target="4hvoMcBqBPqvVNo2y5Dt-15" source="4hvoMcBqBPqvVNo2y5Dt-43">
          <mxGeometry width="50" height="50" relative="1" as="geometry">
            <mxPoint x="-229" y="926" as="sourcePoint" />
            <mxPoint x="-226" y="1029" as="targetPoint" />
          </mxGeometry>
        </mxCell>
        <mxCell id="4hvoMcBqBPqvVNo2y5Dt-50" value="1" style="text;html=1;align=center;verticalAlign=middle;resizable=0;points=[];autosize=1;strokeColor=none;fillColor=none;" parent="1" vertex="1">
          <mxGeometry x="-226.5" y="778" width="25" height="26" as="geometry" />
        </mxCell>
        <mxCell id="4hvoMcBqBPqvVNo2y5Dt-51" value="M" style="text;html=1;align=center;verticalAlign=middle;resizable=0;points=[];autosize=1;strokeColor=none;fillColor=none;" parent="1" vertex="1">
          <mxGeometry x="-226.5" y="924" width="28" height="26" as="geometry" />
        </mxCell>
        <mxCell id="4hvoMcBqBPqvVNo2y5Dt-15" value="&lt;b&gt;PATIENT&lt;/b&gt;" style="rounded=0;whiteSpace=wrap;html=1;fillColor=#FFCC99;" parent="1" vertex="1">
          <mxGeometry x="-277" y="628" width="120" height="60" as="geometry" />
        </mxCell>
        <mxCell id="4hvoMcBqBPqvVNo2y5Dt-43" value="Prescribed" style="rhombus;whiteSpace=wrap;html=1;fillColor=#CCFFFF;" parent="1" vertex="1">
          <mxGeometry x="-269.5" y="809" width="80" height="80" as="geometry" />
        </mxCell>
        <mxCell id="j6cA944iFqFvOHnkUA6u-5" value="&lt;b&gt;MEDICATION&lt;/b&gt;" style="shape=ext;margin=3;double=1;whiteSpace=wrap;html=1;align=center;fillColor=#FFCC99;" vertex="1" parent="1">
          <mxGeometry x="-284" y="1063" width="109" height="48" as="geometry" />
        </mxCell>
        <mxCell id="j6cA944iFqFvOHnkUA6u-6" value="" style="endArrow=none;html=1;rounded=0;exitX=0.685;exitY=0.013;exitDx=0;exitDy=0;exitPerimeter=0;entryX=0.346;entryY=0.986;entryDx=0;entryDy=0;entryPerimeter=0;" edge="1" parent="1" source="4hvoMcBqBPqvVNo2y5Dt-27" target="j6cA944iFqFvOHnkUA6u-5">
          <mxGeometry relative="1" as="geometry">
            <mxPoint x="-157" y="1008" as="sourcePoint" />
            <mxPoint x="3" y="1008" as="targetPoint" />
          </mxGeometry>
        </mxCell>
        <mxCell id="j6cA944iFqFvOHnkUA6u-8" value="" style="shape=link;html=1;rounded=0;entryX=0.5;entryY=1;entryDx=0;entryDy=0;" edge="1" parent="1" target="4hvoMcBqBPqvVNo2y5Dt-43">
          <mxGeometry relative="1" as="geometry">
            <mxPoint x="-231" y="1059" as="sourcePoint" />
            <mxPoint x="3" y="834" as="targetPoint" />
          </mxGeometry>
        </mxCell>
        <mxCell id="j6cA944iFqFvOHnkUA6u-10" value="&lt;b&gt;STAFF&lt;/b&gt;" style="whiteSpace=wrap;html=1;align=center;fillColor=#FFCC99;" vertex="1" parent="1">
          <mxGeometry x="183" y="260" width="168" height="60" as="geometry" />
        </mxCell>
        <mxCell id="j6cA944iFqFvOHnkUA6u-11" value="&lt;u&gt;StaffID&lt;/u&gt;" style="ellipse;whiteSpace=wrap;html=1;fillColor=#FFF2CC;" vertex="1" parent="1">
          <mxGeometry x="71" y="161" width="120" height="80" as="geometry" />
        </mxCell>
        <mxCell id="j6cA944iFqFvOHnkUA6u-12" value="FirstName" style="ellipse;whiteSpace=wrap;html=1;align=center;fillColor=#FFF2CC;" vertex="1" parent="1">
          <mxGeometry x="365" y="161" width="113" height="62" as="geometry" />
        </mxCell>
        <mxCell id="j6cA944iFqFvOHnkUA6u-13" value="LastName" style="ellipse;whiteSpace=wrap;html=1;align=center;fillColor=#FFF2CC;" vertex="1" parent="1">
          <mxGeometry x="399" y="228" width="129" height="56" as="geometry" />
        </mxCell>
        <mxCell id="j6cA944iFqFvOHnkUA6u-14" value="Position" style="ellipse;whiteSpace=wrap;html=1;align=center;fillColor=#FFF2CC;" vertex="1" parent="1">
          <mxGeometry x="445" y="288" width="120" height="51" as="geometry" />
        </mxCell>
        <mxCell id="j6cA944iFqFvOHnkUA6u-15" value="HireDate" style="ellipse;whiteSpace=wrap;html=1;align=center;fillColor=#FFF2CC;" vertex="1" parent="1">
          <mxGeometry x="399" y="360" width="121" height="54" as="geometry" />
        </mxCell>
        <mxCell id="j6cA944iFqFvOHnkUA6u-16" value="PhoneNumber" style="ellipse;whiteSpace=wrap;html=1;align=center;fillColor=#FFF2CC;" vertex="1" parent="1">
          <mxGeometry x="114" y="399" width="119" height="44" as="geometry" />
        </mxCell>
        <mxCell id="j6cA944iFqFvOHnkUA6u-17" value="EmailAddress" style="ellipse;whiteSpace=wrap;html=1;align=center;fillColor=#FFF2CC;" vertex="1" parent="1">
          <mxGeometry x="61" y="331" width="118" height="52" as="geometry" />
        </mxCell>
        <mxCell id="j6cA944iFqFvOHnkUA6u-18" value="" style="endArrow=none;html=1;rounded=0;exitX=0.752;exitY=0.997;exitDx=0;exitDy=0;exitPerimeter=0;" edge="1" parent="1" source="j6cA944iFqFvOHnkUA6u-11" target="j6cA944iFqFvOHnkUA6u-10">
          <mxGeometry relative="1" as="geometry">
            <mxPoint x="156" y="308" as="sourcePoint" />
            <mxPoint x="316" y="308" as="targetPoint" />
          </mxGeometry>
        </mxCell>
        <mxCell id="j6cA944iFqFvOHnkUA6u-19" value="" style="endArrow=none;html=1;rounded=0;exitX=0.943;exitY=0.267;exitDx=0;exitDy=0;exitPerimeter=0;entryX=0.058;entryY=1.002;entryDx=0;entryDy=0;entryPerimeter=0;" edge="1" parent="1" source="j6cA944iFqFvOHnkUA6u-17" target="j6cA944iFqFvOHnkUA6u-10">
          <mxGeometry relative="1" as="geometry">
            <mxPoint x="156" y="308" as="sourcePoint" />
            <mxPoint x="316" y="308" as="targetPoint" />
          </mxGeometry>
        </mxCell>
        <mxCell id="j6cA944iFqFvOHnkUA6u-20" value="" style="endArrow=none;html=1;rounded=0;exitX=0.5;exitY=0;exitDx=0;exitDy=0;" edge="1" parent="1" source="j6cA944iFqFvOHnkUA6u-16">
          <mxGeometry relative="1" as="geometry">
            <mxPoint x="156" y="308" as="sourcePoint" />
            <mxPoint x="213" y="318" as="targetPoint" />
            <Array as="points">
              <mxPoint x="213" y="318" />
            </Array>
          </mxGeometry>
        </mxCell>
        <mxCell id="j6cA944iFqFvOHnkUA6u-21" value="" style="endArrow=none;html=1;rounded=0;entryX=0.833;entryY=1.017;entryDx=0;entryDy=0;entryPerimeter=0;" edge="1" parent="1" target="j6cA944iFqFvOHnkUA6u-10">
          <mxGeometry relative="1" as="geometry">
            <mxPoint x="439" y="361" as="sourcePoint" />
            <mxPoint x="316" y="308" as="targetPoint" />
          </mxGeometry>
        </mxCell>
        <mxCell id="j6cA944iFqFvOHnkUA6u-22" value="" style="endArrow=none;html=1;rounded=0;exitX=0.286;exitY=1.004;exitDx=0;exitDy=0;exitPerimeter=0;entryX=0.75;entryY=0;entryDx=0;entryDy=0;" edge="1" parent="1" source="j6cA944iFqFvOHnkUA6u-12" target="j6cA944iFqFvOHnkUA6u-10">
          <mxGeometry relative="1" as="geometry">
            <mxPoint x="156" y="308" as="sourcePoint" />
            <mxPoint x="316" y="308" as="targetPoint" />
          </mxGeometry>
        </mxCell>
        <mxCell id="j6cA944iFqFvOHnkUA6u-24" value="" style="endArrow=none;html=1;rounded=0;entryX=0;entryY=0.5;entryDx=0;entryDy=0;exitX=1;exitY=0.393;exitDx=0;exitDy=0;exitPerimeter=0;" edge="1" parent="1" source="j6cA944iFqFvOHnkUA6u-10" target="j6cA944iFqFvOHnkUA6u-14">
          <mxGeometry relative="1" as="geometry">
            <mxPoint x="156" y="308" as="sourcePoint" />
            <mxPoint x="316" y="308" as="targetPoint" />
          </mxGeometry>
        </mxCell>
        <mxCell id="j6cA944iFqFvOHnkUA6u-26" value="Assigned To" style="shape=rhombus;perimeter=rhombusPerimeter;whiteSpace=wrap;html=1;align=center;fillColor=#CCFFFF;" vertex="1" parent="1">
          <mxGeometry x="-52" y="260" width="120" height="60" as="geometry" />
        </mxCell>
        <mxCell id="j6cA944iFqFvOHnkUA6u-27" value="" style="endArrow=none;html=1;rounded=0;exitX=1;exitY=0.5;exitDx=0;exitDy=0;entryX=0;entryY=0.5;entryDx=0;entryDy=0;" edge="1" parent="1" source="4hvoMcBqBPqvVNo2y5Dt-1" target="j6cA944iFqFvOHnkUA6u-26">
          <mxGeometry relative="1" as="geometry">
            <mxPoint x="156" y="273" as="sourcePoint" />
            <mxPoint x="316" y="273" as="targetPoint" />
          </mxGeometry>
        </mxCell>
        <mxCell id="j6cA944iFqFvOHnkUA6u-28" value="" style="endArrow=none;html=1;rounded=0;exitX=1;exitY=0.5;exitDx=0;exitDy=0;entryX=0;entryY=0.5;entryDx=0;entryDy=0;" edge="1" parent="1" source="j6cA944iFqFvOHnkUA6u-26" target="j6cA944iFqFvOHnkUA6u-10">
          <mxGeometry relative="1" as="geometry">
            <mxPoint x="156" y="273" as="sourcePoint" />
            <mxPoint x="316" y="273" as="targetPoint" />
          </mxGeometry>
        </mxCell>
        <mxCell id="j6cA944iFqFvOHnkUA6u-30" value="1" style="text;html=1;align=center;verticalAlign=middle;resizable=0;points=[];autosize=1;strokeColor=none;fillColor=none;" vertex="1" parent="1">
          <mxGeometry x="-101" y="266" width="25" height="26" as="geometry" />
        </mxCell>
        <mxCell id="j6cA944iFqFvOHnkUA6u-31" value="M" style="text;html=1;align=center;verticalAlign=middle;resizable=0;points=[];autosize=1;strokeColor=none;fillColor=none;" vertex="1" parent="1">
          <mxGeometry x="71" y="266" width="28" height="26" as="geometry" />
        </mxCell>
        <mxCell id="j6cA944iFqFvOHnkUA6u-33" value="&lt;b&gt;StaffQualification&lt;/b&gt;" style="shape=ext;margin=3;double=1;whiteSpace=wrap;html=1;align=center;fillColor=#FFCC99;" vertex="1" parent="1">
          <mxGeometry x="31" y="-76" width="158" height="63" as="geometry" />
        </mxCell>
        <mxCell id="j6cA944iFqFvOHnkUA6u-34" value="&lt;b&gt;StaffExperience&lt;/b&gt;" style="shape=ext;margin=3;double=1;whiteSpace=wrap;html=1;align=center;fillColor=#FFCC99;" vertex="1" parent="1">
          <mxGeometry x="292" y="-77" width="165" height="65" as="geometry" />
        </mxCell>
        <mxCell id="j6cA944iFqFvOHnkUA6u-35" value="QualificationName&lt;div&gt;_ _ _ _ _ _ _ _ _&lt;/div&gt;" style="ellipse;whiteSpace=wrap;html=1;align=center;fillColor=#FFF2CC;" vertex="1" parent="1">
          <mxGeometry x="-97" y="-201" width="128" height="66" as="geometry" />
        </mxCell>
        <mxCell id="j6cA944iFqFvOHnkUA6u-37" value="Institution&lt;div&gt;_ _ _ _ _ _&lt;/div&gt;" style="ellipse;whiteSpace=wrap;html=1;align=center;fillColor=#FFF2CC;" vertex="1" parent="1">
          <mxGeometry x="42" y="-220" width="113" height="67" as="geometry" />
        </mxCell>
        <mxCell id="j6cA944iFqFvOHnkUA6u-38" value="YearObtained" style="ellipse;whiteSpace=wrap;html=1;align=center;fillColor=#FFF2CC;" vertex="1" parent="1">
          <mxGeometry x="-153" y="-122" width="134" height="57" as="geometry" />
        </mxCell>
        <mxCell id="j6cA944iFqFvOHnkUA6u-39" value="" style="endArrow=none;html=1;rounded=0;exitX=0.5;exitY=1;exitDx=0;exitDy=0;entryX=0.443;entryY=0.016;entryDx=0;entryDy=0;entryPerimeter=0;" edge="1" parent="1" source="j6cA944iFqFvOHnkUA6u-37" target="j6cA944iFqFvOHnkUA6u-33">
          <mxGeometry relative="1" as="geometry">
            <mxPoint x="156" y="29" as="sourcePoint" />
            <mxPoint x="101" y="-83" as="targetPoint" />
          </mxGeometry>
        </mxCell>
        <mxCell id="j6cA944iFqFvOHnkUA6u-40" value="" style="endArrow=none;html=1;rounded=0;exitX=1;exitY=1;exitDx=0;exitDy=0;entryX=0.321;entryY=-0.019;entryDx=0;entryDy=0;entryPerimeter=0;" edge="1" parent="1" source="j6cA944iFqFvOHnkUA6u-35" target="j6cA944iFqFvOHnkUA6u-33">
          <mxGeometry relative="1" as="geometry">
            <mxPoint x="156" y="29" as="sourcePoint" />
            <mxPoint x="316" y="29" as="targetPoint" />
          </mxGeometry>
        </mxCell>
        <mxCell id="j6cA944iFqFvOHnkUA6u-41" value="" style="endArrow=none;html=1;rounded=0;exitX=0.914;exitY=0.862;exitDx=0;exitDy=0;exitPerimeter=0;entryX=0;entryY=0.376;entryDx=0;entryDy=0;entryPerimeter=0;" edge="1" parent="1" source="j6cA944iFqFvOHnkUA6u-38" target="j6cA944iFqFvOHnkUA6u-33">
          <mxGeometry relative="1" as="geometry">
            <mxPoint x="156" y="29" as="sourcePoint" />
            <mxPoint x="316" y="29" as="targetPoint" />
          </mxGeometry>
        </mxCell>
        <mxCell id="j6cA944iFqFvOHnkUA6u-42" value="has" style="shape=rhombus;perimeter=rhombusPerimeter;whiteSpace=wrap;html=1;align=center;fillColor=#CCFFFF;" vertex="1" parent="1">
          <mxGeometry x="125" y="53" width="120" height="60" as="geometry" />
        </mxCell>
        <mxCell id="j6cA944iFqFvOHnkUA6u-43" value="" style="endArrow=none;html=1;rounded=0;entryX=0.027;entryY=0.7;entryDx=0;entryDy=0;entryPerimeter=0;exitX=1;exitY=0.25;exitDx=0;exitDy=0;" edge="1" parent="1" source="j6cA944iFqFvOHnkUA6u-10" target="j6cA944iFqFvOHnkUA6u-13">
          <mxGeometry relative="1" as="geometry">
            <mxPoint x="156" y="214" as="sourcePoint" />
            <mxPoint x="316" y="214" as="targetPoint" />
          </mxGeometry>
        </mxCell>
        <mxCell id="j6cA944iFqFvOHnkUA6u-44" value="EndDate" style="ellipse;whiteSpace=wrap;html=1;align=center;fillColor=#FFF2CC;" vertex="1" parent="1">
          <mxGeometry x="489" y="-135" width="104" height="57" as="geometry" />
        </mxCell>
        <mxCell id="j6cA944iFqFvOHnkUA6u-45" value="StartDate" style="ellipse;whiteSpace=wrap;html=1;align=center;fillColor=#FFF2CC;" vertex="1" parent="1">
          <mxGeometry x="425" y="-187" width="112" height="52" as="geometry" />
        </mxCell>
        <mxCell id="j6cA944iFqFvOHnkUA6u-46" value="Organisation&lt;div&gt;_ _ _ _ _ _ _&amp;nbsp;&lt;/div&gt;" style="ellipse;whiteSpace=wrap;html=1;align=center;fillColor=#FFF2CC;" vertex="1" parent="1">
          <mxGeometry x="338" y="-220" width="104" height="45" as="geometry" />
        </mxCell>
        <mxCell id="j6cA944iFqFvOHnkUA6u-47" value="JobTitle&lt;div&gt;_ _ _ _&lt;/div&gt;" style="ellipse;whiteSpace=wrap;html=1;align=center;fillColor=#FFF2CC;" vertex="1" parent="1">
          <mxGeometry x="213" y="-205" width="120" height="52" as="geometry" />
        </mxCell>
        <mxCell id="j6cA944iFqFvOHnkUA6u-48" value="" style="endArrow=none;html=1;rounded=0;exitX=0.609;exitY=1.073;exitDx=0;exitDy=0;exitPerimeter=0;entryX=0.25;entryY=0;entryDx=0;entryDy=0;" edge="1" parent="1" source="j6cA944iFqFvOHnkUA6u-47" target="j6cA944iFqFvOHnkUA6u-34">
          <mxGeometry relative="1" as="geometry">
            <mxPoint x="156" y="75" as="sourcePoint" />
            <mxPoint x="316" y="75" as="targetPoint" />
          </mxGeometry>
        </mxCell>
        <mxCell id="j6cA944iFqFvOHnkUA6u-49" value="" style="endArrow=none;html=1;rounded=0;exitX=0.313;exitY=1;exitDx=0;exitDy=0;exitPerimeter=0;entryX=0.401;entryY=-0.031;entryDx=0;entryDy=0;entryPerimeter=0;" edge="1" parent="1" source="j6cA944iFqFvOHnkUA6u-46" target="j6cA944iFqFvOHnkUA6u-34">
          <mxGeometry relative="1" as="geometry">
            <mxPoint x="156" y="75" as="sourcePoint" />
            <mxPoint x="316" y="75" as="targetPoint" />
          </mxGeometry>
        </mxCell>
        <mxCell id="j6cA944iFqFvOHnkUA6u-51" value="" style="endArrow=none;html=1;rounded=0;exitX=0.5;exitY=1;exitDx=0;exitDy=0;entryX=0.407;entryY=-0.006;entryDx=0;entryDy=0;entryPerimeter=0;" edge="1" parent="1" source="j6cA944iFqFvOHnkUA6u-42" target="j6cA944iFqFvOHnkUA6u-10">
          <mxGeometry relative="1" as="geometry">
            <mxPoint x="156" y="57" as="sourcePoint" />
            <mxPoint x="316" y="57" as="targetPoint" />
          </mxGeometry>
        </mxCell>
        <mxCell id="j6cA944iFqFvOHnkUA6u-52" value="has" style="shape=rhombus;perimeter=rhombusPerimeter;whiteSpace=wrap;html=1;align=center;fillColor=#CCFFFF;" vertex="1" parent="1">
          <mxGeometry x="292" y="45" width="120" height="60" as="geometry" />
        </mxCell>
        <mxCell id="j6cA944iFqFvOHnkUA6u-54" value="" style="endArrow=none;html=1;rounded=0;entryX=0.44;entryY=0.985;entryDx=0;entryDy=0;entryPerimeter=0;" edge="1" parent="1" target="j6cA944iFqFvOHnkUA6u-52">
          <mxGeometry relative="1" as="geometry">
            <mxPoint x="267" y="258" as="sourcePoint" />
            <mxPoint x="316" y="165" as="targetPoint" />
          </mxGeometry>
        </mxCell>
        <mxCell id="j6cA944iFqFvOHnkUA6u-55" value="" style="endArrow=none;html=1;rounded=0;entryX=0;entryY=1;entryDx=0;entryDy=0;exitX=0.562;exitY=0.01;exitDx=0;exitDy=0;exitPerimeter=0;" edge="1" parent="1" source="j6cA944iFqFvOHnkUA6u-34" target="j6cA944iFqFvOHnkUA6u-45">
          <mxGeometry relative="1" as="geometry">
            <mxPoint x="156" y="38" as="sourcePoint" />
            <mxPoint x="316" y="38" as="targetPoint" />
          </mxGeometry>
        </mxCell>
        <mxCell id="j6cA944iFqFvOHnkUA6u-56" value="" style="endArrow=none;html=1;rounded=0;entryX=0;entryY=0.5;entryDx=0;entryDy=0;exitX=0.75;exitY=0;exitDx=0;exitDy=0;" edge="1" parent="1" source="j6cA944iFqFvOHnkUA6u-34" target="j6cA944iFqFvOHnkUA6u-44">
          <mxGeometry relative="1" as="geometry">
            <mxPoint x="156" y="38" as="sourcePoint" />
            <mxPoint x="316" y="38" as="targetPoint" />
          </mxGeometry>
        </mxCell>
        <mxCell id="j6cA944iFqFvOHnkUA6u-57" value="1" style="text;html=1;align=center;verticalAlign=middle;resizable=0;points=[];autosize=1;strokeColor=none;fillColor=none;" vertex="1" parent="1">
          <mxGeometry x="198" y="132" width="25" height="26" as="geometry" />
        </mxCell>
        <mxCell id="j6cA944iFqFvOHnkUA6u-58" value="M" style="text;html=1;align=center;verticalAlign=middle;resizable=0;points=[];autosize=1;strokeColor=none;fillColor=none;" vertex="1" parent="1">
          <mxGeometry x="155" y="30" width="28" height="26" as="geometry" />
        </mxCell>
        <mxCell id="j6cA944iFqFvOHnkUA6u-59" value="1" style="text;html=1;align=center;verticalAlign=middle;resizable=0;points=[];autosize=1;strokeColor=none;fillColor=none;" vertex="1" parent="1">
          <mxGeometry x="313" y="108" width="25" height="26" as="geometry" />
        </mxCell>
        <mxCell id="j6cA944iFqFvOHnkUA6u-61" value="" style="shape=link;html=1;rounded=0;exitX=0.75;exitY=1;exitDx=0;exitDy=0;entryX=0.5;entryY=0;entryDx=0;entryDy=0;" edge="1" parent="1" source="j6cA944iFqFvOHnkUA6u-33" target="j6cA944iFqFvOHnkUA6u-42">
          <mxGeometry relative="1" as="geometry">
            <mxPoint x="156" y="124" as="sourcePoint" />
            <mxPoint x="316" y="124" as="targetPoint" />
          </mxGeometry>
        </mxCell>
        <mxCell id="j6cA944iFqFvOHnkUA6u-63" value="" style="shape=link;html=1;rounded=0;" edge="1" parent="1">
          <mxGeometry relative="1" as="geometry">
            <mxPoint x="359" y="-9" as="sourcePoint" />
            <mxPoint x="355" y="44" as="targetPoint" />
          </mxGeometry>
        </mxCell>
        <mxCell id="j6cA944iFqFvOHnkUA6u-64" value="M" style="resizable=0;html=1;whiteSpace=wrap;align=left;verticalAlign=bottom;" connectable="0" vertex="1" parent="j6cA944iFqFvOHnkUA6u-63">
          <mxGeometry x="-1" relative="1" as="geometry">
            <mxPoint x="5" y="52" as="offset" />
          </mxGeometry>
        </mxCell>
        <mxCell id="j6cA944iFqFvOHnkUA6u-66" value="&lt;b&gt;SUPPLIER&lt;/b&gt;" style="whiteSpace=wrap;html=1;align=center;fillColor=#FFCC99;" vertex="1" parent="1">
          <mxGeometry x="752" y="260" width="162" height="60" as="geometry" />
        </mxCell>
        <mxCell id="j6cA944iFqFvOHnkUA6u-67" value="SupplierNumber" style="ellipse;whiteSpace=wrap;html=1;align=center;fontStyle=4;fillColor=#FFF2CC;" vertex="1" parent="1">
          <mxGeometry x="601" y="145" width="128" height="52.5" as="geometry" />
        </mxCell>
        <mxCell id="j6cA944iFqFvOHnkUA6u-68" value="Name" style="ellipse;whiteSpace=wrap;html=1;align=center;fillColor=#FFF2CC;" vertex="1" parent="1">
          <mxGeometry x="655" y="82.5" width="119" height="43" as="geometry" />
        </mxCell>
        <mxCell id="j6cA944iFqFvOHnkUA6u-69" value="Email" style="ellipse;whiteSpace=wrap;html=1;align=center;fillColor=#FFF2CC;" vertex="1" parent="1">
          <mxGeometry x="774" y="52" width="110" height="46" as="geometry" />
        </mxCell>
        <mxCell id="j6cA944iFqFvOHnkUA6u-70" value="Address" style="ellipse;whiteSpace=wrap;html=1;align=center;fillColor=#FFF2CC;" vertex="1" parent="1">
          <mxGeometry x="892" y="80" width="112" height="48" as="geometry" />
        </mxCell>
        <mxCell id="j6cA944iFqFvOHnkUA6u-71" value="Phone" style="ellipse;whiteSpace=wrap;html=1;align=center;fillColor=#FFF2CC;" vertex="1" parent="1">
          <mxGeometry x="945" y="141" width="106" height="48" as="geometry" />
        </mxCell>
        <mxCell id="j6cA944iFqFvOHnkUA6u-72" value="Fax" style="ellipse;whiteSpace=wrap;html=1;align=center;fillColor=#FFF2CC;" vertex="1" parent="1">
          <mxGeometry x="979" y="210" width="100" height="40" as="geometry" />
        </mxCell>
        <mxCell id="j6cA944iFqFvOHnkUA6u-73" value="" style="endArrow=none;html=1;rounded=0;entryX=1;entryY=1;entryDx=0;entryDy=0;exitX=0.142;exitY=0;exitDx=0;exitDy=0;exitPerimeter=0;" edge="1" parent="1" source="j6cA944iFqFvOHnkUA6u-66" target="j6cA944iFqFvOHnkUA6u-67">
          <mxGeometry relative="1" as="geometry">
            <mxPoint x="361" y="292" as="sourcePoint" />
            <mxPoint x="521" y="292" as="targetPoint" />
          </mxGeometry>
        </mxCell>
        <mxCell id="j6cA944iFqFvOHnkUA6u-74" value="" style="endArrow=none;html=1;rounded=0;entryX=0.724;entryY=1.049;entryDx=0;entryDy=0;entryPerimeter=0;" edge="1" parent="1" target="j6cA944iFqFvOHnkUA6u-68">
          <mxGeometry relative="1" as="geometry">
            <mxPoint x="795" y="259" as="sourcePoint" />
            <mxPoint x="521" y="292" as="targetPoint" />
            <Array as="points" />
          </mxGeometry>
        </mxCell>
        <mxCell id="j6cA944iFqFvOHnkUA6u-75" value="" style="endArrow=none;html=1;rounded=0;entryX=0.5;entryY=1;entryDx=0;entryDy=0;exitX=0.4;exitY=0.009;exitDx=0;exitDy=0;exitPerimeter=0;" edge="1" parent="1" source="j6cA944iFqFvOHnkUA6u-66" target="j6cA944iFqFvOHnkUA6u-69">
          <mxGeometry relative="1" as="geometry">
            <mxPoint x="361" y="292" as="sourcePoint" />
            <mxPoint x="521" y="292" as="targetPoint" />
          </mxGeometry>
        </mxCell>
        <mxCell id="j6cA944iFqFvOHnkUA6u-76" value="" style="endArrow=none;html=1;rounded=0;entryX=0.201;entryY=1.002;entryDx=0;entryDy=0;entryPerimeter=0;exitX=0.531;exitY=0.017;exitDx=0;exitDy=0;exitPerimeter=0;" edge="1" parent="1" source="j6cA944iFqFvOHnkUA6u-66" target="j6cA944iFqFvOHnkUA6u-70">
          <mxGeometry relative="1" as="geometry">
            <mxPoint x="841" y="254" as="sourcePoint" />
            <mxPoint x="521" y="292" as="targetPoint" />
            <Array as="points">
              <mxPoint x="915" y="128" />
            </Array>
          </mxGeometry>
        </mxCell>
        <mxCell id="j6cA944iFqFvOHnkUA6u-77" value="" style="endArrow=none;html=1;rounded=0;entryX=0.082;entryY=0.88;entryDx=0;entryDy=0;entryPerimeter=0;" edge="1" parent="1" target="j6cA944iFqFvOHnkUA6u-71">
          <mxGeometry relative="1" as="geometry">
            <mxPoint x="857" y="259" as="sourcePoint" />
            <mxPoint x="521" y="292" as="targetPoint" />
          </mxGeometry>
        </mxCell>
        <mxCell id="j6cA944iFqFvOHnkUA6u-78" value="" style="endArrow=none;html=1;rounded=0;entryX=0;entryY=0.5;entryDx=0;entryDy=0;exitX=0.806;exitY=0.009;exitDx=0;exitDy=0;exitPerimeter=0;" edge="1" parent="1" source="j6cA944iFqFvOHnkUA6u-66" target="j6cA944iFqFvOHnkUA6u-72">
          <mxGeometry relative="1" as="geometry">
            <mxPoint x="361" y="292" as="sourcePoint" />
            <mxPoint x="521" y="292" as="targetPoint" />
          </mxGeometry>
        </mxCell>
        <mxCell id="j6cA944iFqFvOHnkUA6u-80" value="Address line1" style="ellipse;whiteSpace=wrap;html=1;align=center;fillColor=#FFF2CC;" vertex="1" parent="1">
          <mxGeometry x="901" y="-41" width="100" height="40" as="geometry" />
        </mxCell>
        <mxCell id="j6cA944iFqFvOHnkUA6u-81" value="Address line 2" style="ellipse;whiteSpace=wrap;html=1;align=center;fillColor=#FFF2CC;" vertex="1" parent="1">
          <mxGeometry x="1012" y="-48" width="100" height="40" as="geometry" />
        </mxCell>
        <mxCell id="j6cA944iFqFvOHnkUA6u-82" value="City" style="ellipse;whiteSpace=wrap;html=1;align=center;fillColor=#FFF2CC;" vertex="1" parent="1">
          <mxGeometry x="1064" y="5" width="100" height="40" as="geometry" />
        </mxCell>
        <mxCell id="j6cA944iFqFvOHnkUA6u-83" value="State" style="ellipse;whiteSpace=wrap;html=1;align=center;fillColor=#FFF2CC;" vertex="1" parent="1">
          <mxGeometry x="1106" y="56.5" width="103" height="43" as="geometry" />
        </mxCell>
        <mxCell id="j6cA944iFqFvOHnkUA6u-84" value="" style="endArrow=none;html=1;rounded=0;entryX=0.5;entryY=1;entryDx=0;entryDy=0;" edge="1" parent="1" target="j6cA944iFqFvOHnkUA6u-80">
          <mxGeometry relative="1" as="geometry">
            <mxPoint x="947" y="77" as="sourcePoint" />
            <mxPoint x="712" y="236" as="targetPoint" />
          </mxGeometry>
        </mxCell>
        <mxCell id="j6cA944iFqFvOHnkUA6u-85" value="" style="endArrow=none;html=1;rounded=0;entryX=0.252;entryY=0.981;entryDx=0;entryDy=0;entryPerimeter=0;exitX=0.59;exitY=0.058;exitDx=0;exitDy=0;exitPerimeter=0;" edge="1" parent="1" source="j6cA944iFqFvOHnkUA6u-70" target="j6cA944iFqFvOHnkUA6u-81">
          <mxGeometry relative="1" as="geometry">
            <mxPoint x="552" y="236" as="sourcePoint" />
            <mxPoint x="712" y="236" as="targetPoint" />
          </mxGeometry>
        </mxCell>
        <mxCell id="j6cA944iFqFvOHnkUA6u-86" value="" style="endArrow=none;html=1;rounded=0;entryX=0;entryY=1;entryDx=0;entryDy=0;exitX=0.797;exitY=0.132;exitDx=0;exitDy=0;exitPerimeter=0;" edge="1" parent="1" source="j6cA944iFqFvOHnkUA6u-70" target="j6cA944iFqFvOHnkUA6u-82">
          <mxGeometry relative="1" as="geometry">
            <mxPoint x="552" y="236" as="sourcePoint" />
            <mxPoint x="712" y="236" as="targetPoint" />
          </mxGeometry>
        </mxCell>
        <mxCell id="j6cA944iFqFvOHnkUA6u-87" value="" style="endArrow=none;html=1;rounded=0;entryX=0;entryY=0.5;entryDx=0;entryDy=0;exitX=1;exitY=0.5;exitDx=0;exitDy=0;" edge="1" parent="1" source="j6cA944iFqFvOHnkUA6u-70" target="j6cA944iFqFvOHnkUA6u-83">
          <mxGeometry relative="1" as="geometry">
            <mxPoint x="552" y="236" as="sourcePoint" />
            <mxPoint x="712" y="236" as="targetPoint" />
          </mxGeometry>
        </mxCell>
        <mxCell id="j6cA944iFqFvOHnkUA6u-88" value="PostCode" style="ellipse;whiteSpace=wrap;html=1;align=center;fillColor=#FFF2CC;" vertex="1" parent="1">
          <mxGeometry x="1133" y="111" width="100" height="40" as="geometry" />
        </mxCell>
        <mxCell id="j6cA944iFqFvOHnkUA6u-89" value="" style="endArrow=none;html=1;rounded=0;entryX=0;entryY=0.5;entryDx=0;entryDy=0;exitX=0.987;exitY=0.65;exitDx=0;exitDy=0;exitPerimeter=0;" edge="1" parent="1" source="j6cA944iFqFvOHnkUA6u-70" target="j6cA944iFqFvOHnkUA6u-88">
          <mxGeometry relative="1" as="geometry">
            <mxPoint x="789" y="268" as="sourcePoint" />
            <mxPoint x="949" y="268" as="targetPoint" />
          </mxGeometry>
        </mxCell>
        <mxCell id="j6cA944iFqFvOHnkUA6u-90" value="&lt;b&gt;SUPPLY&lt;/b&gt;" style="whiteSpace=wrap;html=1;align=center;fillColor=#FFCC99;" vertex="1" parent="1">
          <mxGeometry x="745.5" y="626" width="182" height="64" as="geometry" />
        </mxCell>
        <mxCell id="j6cA944iFqFvOHnkUA6u-92" value="provides" style="shape=rhombus;perimeter=rhombusPerimeter;whiteSpace=wrap;html=1;align=center;fillColor=#CCFFFF;" vertex="1" parent="1">
          <mxGeometry x="775" y="428" width="123" height="67" as="geometry" />
        </mxCell>
        <mxCell id="j6cA944iFqFvOHnkUA6u-93" value="" style="endArrow=none;html=1;rounded=0;exitX=0.5;exitY=1;exitDx=0;exitDy=0;entryX=0.5;entryY=0;entryDx=0;entryDy=0;" edge="1" parent="1" source="j6cA944iFqFvOHnkUA6u-66" target="j6cA944iFqFvOHnkUA6u-92">
          <mxGeometry relative="1" as="geometry">
            <mxPoint x="273" y="459" as="sourcePoint" />
            <mxPoint x="831" y="437" as="targetPoint" />
          </mxGeometry>
        </mxCell>
        <mxCell id="j6cA944iFqFvOHnkUA6u-95" value="" style="shape=link;html=1;rounded=0;exitX=0.5;exitY=1;exitDx=0;exitDy=0;entryX=0.5;entryY=0;entryDx=0;entryDy=0;" edge="1" parent="1" source="j6cA944iFqFvOHnkUA6u-92" target="j6cA944iFqFvOHnkUA6u-90">
          <mxGeometry relative="1" as="geometry">
            <mxPoint x="468" y="534" as="sourcePoint" />
            <mxPoint x="628" y="534" as="targetPoint" />
          </mxGeometry>
        </mxCell>
        <mxCell id="j6cA944iFqFvOHnkUA6u-98" value="1" style="text;html=1;align=center;verticalAlign=middle;resizable=0;points=[];autosize=1;strokeColor=none;fillColor=none;" vertex="1" parent="1">
          <mxGeometry x="834" y="394" width="25" height="26" as="geometry" />
        </mxCell>
        <mxCell id="j6cA944iFqFvOHnkUA6u-99" value="M" style="text;html=1;align=center;verticalAlign=middle;resizable=0;points=[];autosize=1;strokeColor=none;fillColor=none;" vertex="1" parent="1">
          <mxGeometry x="837" y="511" width="28" height="26" as="geometry" />
        </mxCell>
        <mxCell id="j6cA944iFqFvOHnkUA6u-100" value="&lt;u&gt;ItemNumber&lt;/u&gt;" style="ellipse;whiteSpace=wrap;html=1;align=center;fillColor=#FFF2CC;" vertex="1" parent="1">
          <mxGeometry x="666" y="485" width="137" height="61" as="geometry" />
        </mxCell>
        <mxCell id="j6cA944iFqFvOHnkUA6u-101" value="Name" style="ellipse;whiteSpace=wrap;html=1;align=center;fillColor=#FFF2CC;" vertex="1" parent="1">
          <mxGeometry x="605" y="546" width="116" height="50" as="geometry" />
        </mxCell>
        <mxCell id="j6cA944iFqFvOHnkUA6u-102" value="Description" style="ellipse;whiteSpace=wrap;html=1;align=center;fillColor=#FFF2CC;" vertex="1" parent="1">
          <mxGeometry x="885" y="492" width="104" height="52" as="geometry" />
        </mxCell>
        <mxCell id="j6cA944iFqFvOHnkUA6u-103" value="Type" style="ellipse;whiteSpace=wrap;html=1;align=center;fillColor=#FFF2CC;" vertex="1" parent="1">
          <mxGeometry x="992" y="517" width="125" height="52.5" as="geometry" />
        </mxCell>
        <mxCell id="j6cA944iFqFvOHnkUA6u-104" value="QuantityInStock" style="ellipse;whiteSpace=wrap;html=1;align=center;fillColor=#FFF2CC;" vertex="1" parent="1">
          <mxGeometry x="1029" y="578" width="125" height="53" as="geometry" />
        </mxCell>
        <mxCell id="j6cA944iFqFvOHnkUA6u-105" value="CostPerUnit" style="ellipse;whiteSpace=wrap;html=1;align=center;fillColor=#FFF2CC;" vertex="1" parent="1">
          <mxGeometry x="1027" y="636" width="139" height="56" as="geometry" />
        </mxCell>
        <mxCell id="j6cA944iFqFvOHnkUA6u-106" value="" style="endArrow=none;html=1;rounded=0;exitX=1;exitY=1;exitDx=0;exitDy=0;" edge="1" parent="1" source="j6cA944iFqFvOHnkUA6u-100">
          <mxGeometry relative="1" as="geometry">
            <mxPoint x="468" y="629" as="sourcePoint" />
            <mxPoint x="795" y="618" as="targetPoint" />
          </mxGeometry>
        </mxCell>
        <mxCell id="j6cA944iFqFvOHnkUA6u-107" value="" style="endArrow=none;html=1;rounded=0;exitX=0;exitY=0.25;exitDx=0;exitDy=0;entryX=0.918;entryY=0.802;entryDx=0;entryDy=0;entryPerimeter=0;" edge="1" parent="1" source="j6cA944iFqFvOHnkUA6u-90" target="j6cA944iFqFvOHnkUA6u-101">
          <mxGeometry relative="1" as="geometry">
            <mxPoint x="468" y="629" as="sourcePoint" />
            <mxPoint x="628" y="629" as="targetPoint" />
          </mxGeometry>
        </mxCell>
        <mxCell id="j6cA944iFqFvOHnkUA6u-108" value="" style="endArrow=none;html=1;rounded=0;entryX=0.32;entryY=1;entryDx=0;entryDy=0;entryPerimeter=0;exitX=0.657;exitY=0.031;exitDx=0;exitDy=0;exitPerimeter=0;" edge="1" parent="1" source="j6cA944iFqFvOHnkUA6u-90" target="j6cA944iFqFvOHnkUA6u-102">
          <mxGeometry relative="1" as="geometry">
            <mxPoint x="468" y="629" as="sourcePoint" />
            <mxPoint x="628" y="629" as="targetPoint" />
          </mxGeometry>
        </mxCell>
        <mxCell id="j6cA944iFqFvOHnkUA6u-109" value="" style="endArrow=none;html=1;rounded=0;entryX=0.061;entryY=0.721;entryDx=0;entryDy=0;entryPerimeter=0;exitX=0.835;exitY=0;exitDx=0;exitDy=0;exitPerimeter=0;" edge="1" parent="1" source="j6cA944iFqFvOHnkUA6u-90" target="j6cA944iFqFvOHnkUA6u-103">
          <mxGeometry relative="1" as="geometry">
            <mxPoint x="468" y="629" as="sourcePoint" />
            <mxPoint x="628" y="629" as="targetPoint" />
          </mxGeometry>
        </mxCell>
        <mxCell id="j6cA944iFqFvOHnkUA6u-114" value="" style="endArrow=none;html=1;rounded=0;entryX=0;entryY=0.5;entryDx=0;entryDy=0;exitX=1;exitY=0.25;exitDx=0;exitDy=0;" edge="1" parent="1" source="j6cA944iFqFvOHnkUA6u-90" target="j6cA944iFqFvOHnkUA6u-104">
          <mxGeometry relative="1" as="geometry">
            <mxPoint x="468" y="629" as="sourcePoint" />
            <mxPoint x="628" y="629" as="targetPoint" />
          </mxGeometry>
        </mxCell>
        <mxCell id="j6cA944iFqFvOHnkUA6u-115" value="" style="endArrow=none;html=1;rounded=0;entryX=0.033;entryY=0.336;entryDx=0;entryDy=0;entryPerimeter=0;" edge="1" parent="1" target="j6cA944iFqFvOHnkUA6u-105">
          <mxGeometry relative="1" as="geometry">
            <mxPoint x="931" y="648" as="sourcePoint" />
            <mxPoint x="628" y="629" as="targetPoint" />
          </mxGeometry>
        </mxCell>
        <mxCell id="j6cA944iFqFvOHnkUA6u-116" value="" style="endArrow=none;html=1;rounded=0;entryX=0.5;entryY=1;entryDx=0;entryDy=0;" edge="1" parent="1" target="j6cA944iFqFvOHnkUA6u-90">
          <mxGeometry relative="1" as="geometry">
            <mxPoint x="841" y="772" as="sourcePoint" />
            <mxPoint x="797" y="616" as="targetPoint" />
          </mxGeometry>
        </mxCell>
        <mxCell id="j6cA944iFqFvOHnkUA6u-117" value="" style="endArrow=none;html=1;rounded=0;exitX=0.5;exitY=0;exitDx=0;exitDy=0;" edge="1" parent="1" source="j6cA944iFqFvOHnkUA6u-119">
          <mxGeometry relative="1" as="geometry">
            <mxPoint x="782" y="824" as="sourcePoint" />
            <mxPoint x="841" y="773" as="targetPoint" />
          </mxGeometry>
        </mxCell>
        <mxCell id="j6cA944iFqFvOHnkUA6u-125" value="U" style="edgeLabel;html=1;align=center;verticalAlign=middle;resizable=0;points=[];" vertex="1" connectable="0" parent="j6cA944iFqFvOHnkUA6u-117">
          <mxGeometry x="-0.1519" y="1" relative="1" as="geometry">
            <mxPoint as="offset" />
          </mxGeometry>
        </mxCell>
        <mxCell id="j6cA944iFqFvOHnkUA6u-118" value="" style="endArrow=none;html=1;rounded=0;exitX=0.25;exitY=0;exitDx=0;exitDy=0;" edge="1" parent="1" source="j6cA944iFqFvOHnkUA6u-123">
          <mxGeometry relative="1" as="geometry">
            <mxPoint x="910" y="822" as="sourcePoint" />
            <mxPoint x="843" y="773" as="targetPoint" />
          </mxGeometry>
        </mxCell>
        <mxCell id="j6cA944iFqFvOHnkUA6u-119" value="Pharmaceutical" style="whiteSpace=wrap;html=1;align=center;fillColor=#FFCC99;" vertex="1" parent="1">
          <mxGeometry x="701" y="816" width="121" height="49" as="geometry" />
        </mxCell>
        <mxCell id="j6cA944iFqFvOHnkUA6u-120" value="Surgical / Non-Surgical" style="whiteSpace=wrap;html=1;align=center;fillColor=#FFCC99;" vertex="1" parent="1">
          <mxGeometry x="887" y="815" width="147" height="55" as="geometry" />
        </mxCell>
        <mxCell id="j6cA944iFqFvOHnkUA6u-121" value="Dosage" style="ellipse;whiteSpace=wrap;html=1;align=center;fillColor=#FFF2CC;" vertex="1" parent="1">
          <mxGeometry x="687" y="901" width="100" height="40" as="geometry" />
        </mxCell>
        <mxCell id="j6cA944iFqFvOHnkUA6u-122" value="" style="endArrow=none;html=1;rounded=0;exitX=0.418;exitY=0.011;exitDx=0;exitDy=0;exitPerimeter=0;entryX=0.347;entryY=1.054;entryDx=0;entryDy=0;entryPerimeter=0;" edge="1" parent="1" source="j6cA944iFqFvOHnkUA6u-121" target="j6cA944iFqFvOHnkUA6u-119">
          <mxGeometry relative="1" as="geometry">
            <mxPoint x="637" y="842" as="sourcePoint" />
            <mxPoint x="797" y="842" as="targetPoint" />
          </mxGeometry>
        </mxCell>
        <mxCell id="j6cA944iFqFvOHnkUA6u-124" value="" style="endArrow=none;html=1;rounded=0;exitX=0.25;exitY=0;exitDx=0;exitDy=0;" edge="1" parent="1" source="j6cA944iFqFvOHnkUA6u-120" target="j6cA944iFqFvOHnkUA6u-123">
          <mxGeometry relative="1" as="geometry">
            <mxPoint x="924" y="815" as="sourcePoint" />
            <mxPoint x="843" y="773" as="targetPoint" />
          </mxGeometry>
        </mxCell>
        <mxCell id="j6cA944iFqFvOHnkUA6u-126" value="U" style="edgeLabel;html=1;align=center;verticalAlign=middle;resizable=0;points=[];" vertex="1" connectable="0" parent="j6cA944iFqFvOHnkUA6u-124">
          <mxGeometry x="0.0397" relative="1" as="geometry">
            <mxPoint as="offset" />
          </mxGeometry>
        </mxCell>
        <mxCell id="j6cA944iFqFvOHnkUA6u-123" value="D" style="ellipse;whiteSpace=wrap;html=1;aspect=fixed;" vertex="1" parent="1">
          <mxGeometry x="826" y="755" width="36" height="36" as="geometry" />
        </mxCell>
        <mxCell id="j6cA944iFqFvOHnkUA6u-127" value="Type" style="text;html=1;align=center;verticalAlign=middle;resizable=0;points=[];autosize=1;strokeColor=none;fillColor=none;" vertex="1" parent="1">
          <mxGeometry x="834" y="716" width="44" height="26" as="geometry" />
        </mxCell>
        <mxCell id="j6cA944iFqFvOHnkUA6u-128" value="&lt;b&gt;REQUISITION&lt;/b&gt;" style="whiteSpace=wrap;html=1;align=center;fillColor=#FFCC99;" vertex="1" parent="1">
          <mxGeometry x="164" y="628" width="201" height="72" as="geometry" />
        </mxCell>
        <mxCell id="j6cA944iFqFvOHnkUA6u-129" value="RequisitionNumber" style="ellipse;whiteSpace=wrap;html=1;align=center;fontStyle=4;fillColor=#FFF2CC;" vertex="1" parent="1">
          <mxGeometry x="10" y="742" width="140" height="58" as="geometry" />
        </mxCell>
        <mxCell id="j6cA944iFqFvOHnkUA6u-130" value="OrderDate" style="ellipse;whiteSpace=wrap;html=1;align=center;fillColor=#FFF2CC;" vertex="1" parent="1">
          <mxGeometry x="134" y="804" width="123.5" height="51.5" as="geometry" />
        </mxCell>
        <mxCell id="j6cA944iFqFvOHnkUA6u-131" value="Quantity" style="ellipse;whiteSpace=wrap;html=1;align=center;fillColor=#FFF2CC;" vertex="1" parent="1">
          <mxGeometry x="278" y="801.5" width="126" height="54" as="geometry" />
        </mxCell>
        <mxCell id="j6cA944iFqFvOHnkUA6u-132" value="DeliveryDate" style="ellipse;whiteSpace=wrap;html=1;align=center;fillColor=#FFF2CC;" vertex="1" parent="1">
          <mxGeometry x="389" y="719" width="117" height="56" as="geometry" />
        </mxCell>
        <mxCell id="j6cA944iFqFvOHnkUA6u-133" value="" style="endArrow=none;html=1;rounded=0;exitX=0.423;exitY=0.029;exitDx=0;exitDy=0;exitPerimeter=0;" edge="1" parent="1" source="j6cA944iFqFvOHnkUA6u-129">
          <mxGeometry relative="1" as="geometry">
            <mxPoint x="204" y="638" as="sourcePoint" />
            <mxPoint x="163" y="690" as="targetPoint" />
            <Array as="points" />
          </mxGeometry>
        </mxCell>
        <mxCell id="j6cA944iFqFvOHnkUA6u-135" value="" style="endArrow=none;html=1;rounded=0;exitX=0.433;exitY=0.028;exitDx=0;exitDy=0;exitPerimeter=0;entryX=0.165;entryY=1.009;entryDx=0;entryDy=0;entryPerimeter=0;" edge="1" parent="1" source="j6cA944iFqFvOHnkUA6u-130" target="j6cA944iFqFvOHnkUA6u-128">
          <mxGeometry relative="1" as="geometry">
            <mxPoint x="204" y="638" as="sourcePoint" />
            <mxPoint x="364" y="638" as="targetPoint" />
          </mxGeometry>
        </mxCell>
        <mxCell id="j6cA944iFqFvOHnkUA6u-136" value="" style="endArrow=none;html=1;rounded=0;entryX=0.325;entryY=0.024;entryDx=0;entryDy=0;entryPerimeter=0;exitX=0.407;exitY=0.997;exitDx=0;exitDy=0;exitPerimeter=0;" edge="1" parent="1" source="j6cA944iFqFvOHnkUA6u-128" target="j6cA944iFqFvOHnkUA6u-131">
          <mxGeometry relative="1" as="geometry">
            <mxPoint x="204" y="638" as="sourcePoint" />
            <mxPoint x="364" y="638" as="targetPoint" />
            <Array as="points">
              <mxPoint x="237" y="702" />
            </Array>
          </mxGeometry>
        </mxCell>
        <mxCell id="j6cA944iFqFvOHnkUA6u-137" value="" style="endArrow=none;html=1;rounded=0;entryX=0.055;entryY=0.226;entryDx=0;entryDy=0;entryPerimeter=0;exitX=0.851;exitY=0.997;exitDx=0;exitDy=0;exitPerimeter=0;" edge="1" parent="1" source="j6cA944iFqFvOHnkUA6u-128" target="j6cA944iFqFvOHnkUA6u-132">
          <mxGeometry relative="1" as="geometry">
            <mxPoint x="204" y="638" as="sourcePoint" />
            <mxPoint x="364" y="638" as="targetPoint" />
          </mxGeometry>
        </mxCell>
        <mxCell id="j6cA944iFqFvOHnkUA6u-138" value="Requests" style="shape=rhombus;perimeter=rhombusPerimeter;whiteSpace=wrap;html=1;align=center;fillColor=#CCFFFF;" vertex="1" parent="1">
          <mxGeometry x="495" y="619" width="136" height="75" as="geometry" />
        </mxCell>
        <mxCell id="j6cA944iFqFvOHnkUA6u-140" value="" style="shape=link;html=1;rounded=0;entryX=0;entryY=0.5;entryDx=0;entryDy=0;exitX=0.99;exitY=0.421;exitDx=0;exitDy=0;exitPerimeter=0;" edge="1" parent="1" source="j6cA944iFqFvOHnkUA6u-128" target="j6cA944iFqFvOHnkUA6u-138">
          <mxGeometry relative="1" as="geometry">
            <mxPoint x="149" y="634" as="sourcePoint" />
            <mxPoint x="309" y="634" as="targetPoint" />
          </mxGeometry>
        </mxCell>
        <mxCell id="j6cA944iFqFvOHnkUA6u-143" value="" style="endArrow=none;html=1;rounded=0;entryX=0;entryY=0.5;entryDx=0;entryDy=0;exitX=1;exitY=0.5;exitDx=0;exitDy=0;" edge="1" parent="1" source="j6cA944iFqFvOHnkUA6u-138" target="j6cA944iFqFvOHnkUA6u-90">
          <mxGeometry relative="1" as="geometry">
            <mxPoint x="149" y="634" as="sourcePoint" />
            <mxPoint x="309" y="634" as="targetPoint" />
            <Array as="points" />
          </mxGeometry>
        </mxCell>
        <mxCell id="j6cA944iFqFvOHnkUA6u-144" value="M" style="text;html=1;align=center;verticalAlign=middle;resizable=0;points=[];autosize=1;strokeColor=none;fillColor=none;" vertex="1" parent="1">
          <mxGeometry x="450" y="634" width="28" height="26" as="geometry" />
        </mxCell>
        <mxCell id="j6cA944iFqFvOHnkUA6u-145" value="M" style="text;html=1;align=center;verticalAlign=middle;resizable=0;points=[];autosize=1;strokeColor=none;fillColor=none;" vertex="1" parent="1">
          <mxGeometry x="623" y="631" width="28" height="26" as="geometry" />
        </mxCell>
        <mxCell id="j6cA944iFqFvOHnkUA6u-146" value="makes" style="shape=rhombus;perimeter=rhombusPerimeter;whiteSpace=wrap;html=1;align=center;fillColor=#CCFFFF;" vertex="1" parent="1">
          <mxGeometry x="229" y="447" width="120" height="60" as="geometry" />
        </mxCell>
        <mxCell id="j6cA944iFqFvOHnkUA6u-147" value="" style="endArrow=none;html=1;rounded=0;exitX=0.5;exitY=0;exitDx=0;exitDy=0;" edge="1" parent="1" source="j6cA944iFqFvOHnkUA6u-146">
          <mxGeometry relative="1" as="geometry">
            <mxPoint x="198" y="449" as="sourcePoint" />
            <mxPoint x="283" y="319" as="targetPoint" />
          </mxGeometry>
        </mxCell>
        <mxCell id="j6cA944iFqFvOHnkUA6u-148" value="" style="shape=link;html=1;rounded=0;entryX=0.5;entryY=1;entryDx=0;entryDy=0;" edge="1" parent="1" target="j6cA944iFqFvOHnkUA6u-146">
          <mxGeometry relative="1" as="geometry">
            <mxPoint x="291" y="628" as="sourcePoint" />
            <mxPoint x="358" y="449" as="targetPoint" />
          </mxGeometry>
        </mxCell>
        <mxCell id="j6cA944iFqFvOHnkUA6u-151" value="1" style="text;html=1;align=center;verticalAlign=middle;resizable=0;points=[];autosize=1;strokeColor=none;fillColor=none;" vertex="1" parent="1">
          <mxGeometry x="288" y="411" width="25" height="26" as="geometry" />
        </mxCell>
        <mxCell id="j6cA944iFqFvOHnkUA6u-152" value="M" style="text;html=1;align=center;verticalAlign=middle;resizable=0;points=[];autosize=1;strokeColor=none;fillColor=none;" vertex="1" parent="1">
          <mxGeometry x="288" y="520" width="28" height="26" as="geometry" />
        </mxCell>
        <mxCell id="j6cA944iFqFvOHnkUA6u-153" value="Made for" style="shape=rhombus;perimeter=rhombusPerimeter;whiteSpace=wrap;html=1;align=center;fillColor=#CCFFFF;" vertex="1" parent="1">
          <mxGeometry x="-52" y="441" width="134" height="70" as="geometry" />
        </mxCell>
        <mxCell id="j6cA944iFqFvOHnkUA6u-155" value="" style="shape=link;html=1;rounded=0;exitX=0.5;exitY=1;exitDx=0;exitDy=0;entryX=0;entryY=0;entryDx=0;entryDy=0;" edge="1" parent="1" source="j6cA944iFqFvOHnkUA6u-153" target="j6cA944iFqFvOHnkUA6u-128">
          <mxGeometry relative="1" as="geometry">
            <mxPoint x="198" y="449" as="sourcePoint" />
            <mxPoint x="175" y="624" as="targetPoint" />
          </mxGeometry>
        </mxCell>
        <mxCell id="j6cA944iFqFvOHnkUA6u-158" value="" style="endArrow=none;html=1;rounded=0;exitX=0.907;exitY=1.017;exitDx=0;exitDy=0;exitPerimeter=0;entryX=0.5;entryY=0;entryDx=0;entryDy=0;" edge="1" parent="1" source="4hvoMcBqBPqvVNo2y5Dt-1" target="j6cA944iFqFvOHnkUA6u-153">
          <mxGeometry relative="1" as="geometry">
            <mxPoint x="198" y="449" as="sourcePoint" />
            <mxPoint x="358" y="449" as="targetPoint" />
          </mxGeometry>
        </mxCell>
        <mxCell id="j6cA944iFqFvOHnkUA6u-159" value="M" style="text;html=1;align=center;verticalAlign=middle;resizable=0;points=[];autosize=1;strokeColor=none;fillColor=none;" vertex="1" parent="1">
          <mxGeometry x="53" y="519" width="28" height="26" as="geometry" />
        </mxCell>
        <mxCell id="j6cA944iFqFvOHnkUA6u-160" value="1" style="text;html=1;align=center;verticalAlign=middle;resizable=0;points=[];autosize=1;strokeColor=none;fillColor=none;" vertex="1" parent="1">
          <mxGeometry x="-35" y="418" width="25" height="26" as="geometry" />
        </mxCell>
        <mxCell id="j6cA944iFqFvOHnkUA6u-161" value="associated with" style="shape=rhombus;perimeter=rhombusPerimeter;whiteSpace=wrap;html=1;align=center;fillColor=#CCFFFF;" vertex="1" parent="1">
          <mxGeometry x="245" y="924" width="150" height="99" as="geometry" />
        </mxCell>
        <mxCell id="j6cA944iFqFvOHnkUA6u-162" value="" style="endArrow=none;html=1;rounded=0;exitX=1;exitY=0.5;exitDx=0;exitDy=0;" edge="1" parent="1" source="j6cA944iFqFvOHnkUA6u-161">
          <mxGeometry relative="1" as="geometry">
            <mxPoint x="94" y="1009" as="sourcePoint" />
            <mxPoint x="700" y="856" as="targetPoint" />
          </mxGeometry>
        </mxCell>
        <mxCell id="j6cA944iFqFvOHnkUA6u-164" value="" style="shape=link;html=1;rounded=0;exitX=1;exitY=0.5;exitDx=0;exitDy=0;entryX=0;entryY=0.5;entryDx=0;entryDy=0;" edge="1" parent="1" source="j6cA944iFqFvOHnkUA6u-5" target="j6cA944iFqFvOHnkUA6u-161">
          <mxGeometry relative="1" as="geometry">
            <mxPoint x="94" y="991" as="sourcePoint" />
            <mxPoint x="254" y="991" as="targetPoint" />
          </mxGeometry>
        </mxCell>
        <mxCell id="j6cA944iFqFvOHnkUA6u-168" value="" style="endArrow=none;html=1;rounded=0;exitX=0.5;exitY=1;exitDx=0;exitDy=0;entryX=0.5;entryY=0;entryDx=0;entryDy=0;" edge="1" parent="1" source="4hvoMcBqBPqvVNo2y5Dt-1" target="4hvoMcBqBPqvVNo2y5Dt-42">
          <mxGeometry relative="1" as="geometry">
            <mxPoint x="-42" y="450" as="sourcePoint" />
            <mxPoint x="118" y="450" as="targetPoint" />
          </mxGeometry>
        </mxCell>
      </root>
    </mxGraphModel>
  </diagram>
</mxfile>
